<?xml version="1.0" standalone="no"?>
<!DOCTYPE svg PUBLIC "-//W3C//DTD SVG 20010904//EN"
 "http://www.w3.org/TR/2001/REC-SVG-20010904/DTD/svg10.dtd">
<svg version="1.0" xmlns="http://www.w3.org/2000/svg"
 width="2240.000000pt" height="2240.000000pt" viewBox="0 0 2240.000000 2240.000000"
 preserveAspectRatio="xMidYMid meet">
<metadata>
Created by potrace 1.14, written by Peter Selinger 2001-2017
</metadata>
<g transform="translate(0.000000,2240.000000) scale(0.100000,-0.100000)"
fill="#000000" stroke="none">
<path d="M13089 15164 c-77 -14 -156 -51 -142 -65 5 -5 56 -11 113 -13 98 -4
105 -5 127 -30 27 -32 31 -62 20 -174 -13 -131 -77 -285 -193 -462 -68 -105
-146 -210 -156 -210 -4 0 -8 -6 -8 -13 0 -7 -19 -34 -42 -59 -24 -26 -64 -71
-90 -100 -98 -111 -258 -268 -392 -383 -32 -27 -64 -55 -70 -60 -69 -64 -501
-393 -631 -480 -33 -22 -62 -43 -65 -46 -10 -11 -287 -196 -366 -244 -27 -16
-51 -32 -54 -35 -3 -3 -14 -10 -25 -17 -11 -6 -65 -40 -120 -75 -54 -35 -107
-67 -117 -73 -9 -5 -111 -66 -225 -134 -114 -69 -262 -155 -328 -193 -66 -37
-127 -72 -135 -78 -8 -5 -62 -35 -119 -67 -58 -32 -121 -67 -140 -78 -112 -63
-217 -121 -351 -191 -19 -11 -37 -21 -40 -24 -3 -3 -32 -19 -65 -36 -33 -17
-94 -49 -135 -71 -325 -174 -400 -213 -410 -213 -5 0 -10 -4 -10 -10 0 -5 -9
-10 -19 -10 -11 0 -21 -3 -23 -7 -1 -5 -43 -28 -93 -53 -49 -25 -93 -49 -97
-55 -4 -5 -8 -7 -8 -4 0 4 -39 -14 -88 -40 -153 -81 -944 -472 -1035 -511 -12
-6 -29 -14 -37 -19 -8 -6 -55 -29 -105 -52 -120 -56 -267 -125 -335 -157 -30
-15 -57 -27 -60 -28 -3 0 -43 -19 -90 -41 -47 -22 -157 -73 -245 -112 -88 -40
-171 -79 -185 -86 -14 -7 -101 -48 -195 -90 -93 -42 -201 -92 -240 -110 -153
-71 -170 -79 -177 -77 -5 1 -8 -2 -8 -8 0 -6 -3 -9 -7 -8 -5 1 -33 -10 -63
-24 -30 -14 -100 -46 -155 -70 -55 -25 -134 -62 -176 -81 -42 -19 -110 -50
-150 -67 -41 -18 -107 -48 -147 -66 -40 -19 -74 -34 -76 -34 -2 0 -30 -12 -62
-27 -33 -15 -61 -28 -64 -28 -3 -1 -21 -8 -40 -17 -19 -9 -73 -32 -120 -53
-47 -20 -101 -44 -120 -52 -19 -9 -39 -17 -45 -19 -11 -3 -406 -168 -440 -184
-11 -5 -60 -25 -110 -45 -49 -21 -99 -41 -110 -46 -11 -5 -71 -29 -133 -54
-61 -25 -124 -51 -140 -57 -15 -6 -36 -13 -47 -15 -11 -2 -22 -8 -23 -13 -2
-6 -8 -10 -14 -10 -9 0 -231 -86 -283 -110 -11 -5 -56 -23 -100 -41 -44 -17
-94 -37 -112 -45 -17 -8 -34 -14 -38 -14 -4 0 -21 -6 -38 -14 -34 -16 -84 -36
-487 -196 -140 -55 -264 -105 -275 -110 -11 -4 -96 -38 -190 -75 -93 -37 -183
-73 -200 -80 -16 -7 -52 -21 -80 -30 -27 -10 -54 -21 -60 -25 -9 -6 -101 -42
-115 -46 -3 0 -16 -5 -30 -11 -14 -6 -50 -21 -80 -32 -30 -12 -64 -26 -75 -31
-11 -5 -90 -37 -175 -71 -85 -34 -174 -70 -197 -80 -23 -11 -45 -19 -48 -19
-7 0 -46 -16 -110 -45 -16 -7 -48 -21 -70 -31 -22 -10 -113 -52 -203 -95 -89
-43 -165 -78 -169 -78 -3 1 -9 -3 -12 -8 -3 -4 -59 -35 -123 -67 -92 -46 -123
-67 -142 -96 -33 -51 -34 -60 -8 -101 28 -47 62 -63 170 -84 13 -2 32 -7 42
-10 10 -3 31 -8 46 -10 16 -2 43 -7 59 -10 81 -15 83 -15 215 -32 55 -7 970
-11 970 -4 0 3 37 6 83 7 85 1 308 12 387 19 25 2 83 7 130 10 47 3 103 7 125
9 22 2 83 7 135 10 52 4 106 9 120 11 14 2 61 7 105 11 44 3 94 7 110 9 17 2
66 6 110 10 44 4 94 8 110 10 40 4 174 17 205 20 14 1 59 6 100 9 41 4 91 9
110 11 19 3 60 7 90 10 79 8 129 13 175 19 22 3 72 8 110 12 39 3 81 7 95 9
22 4 80 10 170 20 58 6 158 17 194 20 21 3 55 7 75 9 20 3 65 8 101 12 36 3
79 8 95 10 17 2 55 6 85 9 57 5 105 11 175 19 22 3 72 8 110 11 39 4 82 8 96
11 14 2 52 6 85 9 32 3 77 8 99 11 44 5 89 10 180 19 74 8 102 11 185 20 36 4
83 9 105 10 22 2 40 4 40 5 0 2 26 5 120 14 39 3 84 8 100 10 17 3 57 7 90 11
33 3 78 8 100 10 22 3 62 7 89 9 59 6 139 15 186 21 19 3 60 7 90 10 30 3 73
8 95 11 22 4 58 7 80 9 22 1 65 5 95 9 51 6 89 10 200 21 162 17 208 21 285
29 76 8 133 14 210 21 39 3 84 8 100 11 17 2 64 6 105 9 41 2 75 5 75 6 0 2
43 6 120 12 66 6 107 10 230 22 28 3 73 7 100 10 28 2 79 7 115 10 36 4 83 8
105 10 54 4 158 14 230 21 33 4 74 8 90 9 129 11 210 18 320 30 28 3 70 7 95
9 165 15 208 19 235 22 17 2 64 6 105 9 41 3 86 7 100 10 14 2 63 7 110 10 85
7 124 10 210 19 25 3 79 8 120 11 41 4 88 8 105 11 16 3 63 7 105 10 41 2 94
6 116 8 23 2 84 7 136 10 l95 7 -1 -42 c-1 -22 2 -43 5 -45 3 -2 6 -17 7 -34
0 -16 7 -36 14 -43 7 -8 22 -26 33 -40 11 -15 22 -27 26 -27 3 0 19 12 35 28
32 29 59 86 69 143 6 41 30 73 60 82 30 10 132 20 305 32 25 2 45 4 45 5 0 1
27 3 60 5 54 3 116 9 230 20 22 2 74 7 115 10 41 3 86 8 100 10 14 3 63 7 110
10 47 3 99 8 115 10 17 3 59 7 95 10 36 3 81 7 100 9 19 3 69 7 110 11 41 3
91 8 110 10 19 2 67 6 105 9 39 4 79 8 90 10 11 2 58 7 105 11 47 3 96 8 110
10 14 2 57 7 95 10 75 6 138 13 195 21 19 3 60 7 90 9 30 3 75 7 100 10 25 3
68 7 95 10 28 3 66 7 85 10 19 3 62 7 95 10 87 8 192 20 280 32 22 3 60 7 85
8 25 2 45 4 45 5 0 1 30 5 120 14 33 4 69 8 80 10 11 2 49 7 85 11 36 4 79 9
95 11 17 2 50 6 75 8 25 3 59 7 75 10 17 2 53 7 80 11 28 3 66 8 85 10 19 3
60 7 90 10 30 3 62 8 70 10 8 2 42 7 75 10 33 4 72 8 88 11 15 2 39 6 55 8 15
3 52 7 83 11 31 3 66 7 76 9 11 3 44 7 74 11 30 3 61 8 69 10 8 2 40 7 70 10
30 2 71 7 90 10 61 10 113 16 182 22 90 7 103 -2 226 -160 55 -71 111 -141
124 -155 12 -15 43 -52 68 -82 25 -30 54 -65 65 -79 32 -38 80 -54 121 -41 19
6 34 13 34 15 0 2 -61 128 -135 280 -74 152 -135 277 -135 279 0 1 6 3 13 4 6
0 23 3 37 5 14 3 43 7 65 11 23 3 52 9 65 12 14 3 39 7 55 9 36 5 82 12 110
18 11 2 36 7 55 11 19 3 46 8 60 11 14 3 39 8 55 10 17 3 64 12 105 20 41 8
91 17 110 19 19 3 35 5 35 6 0 1 9 3 20 4 19 3 102 19 155 31 14 3 43 7 65 10
22 3 47 7 55 10 8 2 31 7 50 10 48 8 80 14 110 20 14 3 41 8 60 11 19 4 44 8
55 10 23 5 122 23 162 30 16 3 62 12 103 20 41 9 86 17 100 19 14 2 50 8 80
14 30 7 71 14 90 17 45 8 65 12 65 14 0 1 9 3 20 4 11 2 36 6 55 9 33 6 413
83 455 93 11 2 34 7 50 9 17 3 37 8 45 10 8 2 29 7 45 10 17 3 39 8 50 10 11
3 29 7 40 9 11 2 38 9 60 14 22 6 51 13 65 15 14 3 43 10 65 16 22 6 51 12 65
15 14 2 25 5 25 6 0 1 10 3 22 6 62 11 414 111 553 157 52 17 100 32 105 33
14 3 281 98 340 121 56 22 77 30 87 32 8 2 126 51 243 102 191 82 512 237 533
256 7 7 17 13 22 13 10 0 193 108 254 150 25 16 47 30 50 30 4 0 47 31 170
123 86 64 182 150 276 245 113 116 125 129 185 212 21 30 42 57 45 60 11 11
80 129 115 198 52 103 121 292 108 292 -3 0 0 6 6 14 6 8 11 18 10 22 -1 5 1
25 5 44 4 19 9 44 11 55 2 11 4 20 5 20 4 0 10 109 11 205 3 170 -19 303 -77
480 -36 109 -110 272 -145 321 -11 16 -18 29 -15 29 13 0 -145 220 -229 320
-45 54 -245 251 -294 290 -24 19 -48 40 -55 45 -61 55 -245 181 -393 268 -91
54 -341 186 -363 192 -3 1 -18 8 -35 15 -16 7 -33 14 -36 14 -3 1 -25 11 -50
23 -57 28 -195 81 -334 128 -60 20 -117 39 -125 42 -8 4 -19 7 -25 8 -5 2 -51
15 -101 29 -50 15 -101 29 -113 31 -11 3 -30 7 -41 10 -84 21 -226 53 -255 58
-16 3 -55 10 -85 17 -30 6 -66 12 -80 14 -14 3 -59 10 -100 16 -41 6 -86 14
-100 16 -14 3 -43 7 -65 9 -66 7 -127 15 -175 21 -25 3 -72 7 -105 10 -33 2
-80 6 -105 8 -173 16 -341 21 -745 21 -556 -1 -886 -12 -1120 -40 -22 -3 -62
-7 -90 -10 -27 -4 -62 -8 -76 -10 -14 -3 -51 -7 -81 -10 -30 -3 -66 -8 -79
-10 -29 -6 -103 -16 -144 -21 -16 -1 -30 -3 -30 -4 0 -1 -9 -3 -20 -5 -25 -3
-201 -33 -235 -39 -14 -2 -25 -5 -25 -6 0 -1 -11 -3 -25 -6 -14 -2 -59 -11
-100 -19 -41 -8 -86 -17 -100 -19 -26 -5 -262 -55 -292 -62 -10 -2 -26 -6 -35
-8 -138 -33 -201 -48 -218 -51 -11 -2 -81 -20 -155 -40 -74 -19 -144 -38 -155
-40 -11 -3 -49 -14 -85 -24 -36 -11 -128 -39 -205 -61 -123 -36 -534 -170
-575 -187 -8 -3 -17 -7 -20 -7 -3 -1 -18 -7 -35 -13 -60 -25 -90 -36 -100 -39
-15 -3 -195 -72 -230 -88 -16 -7 -46 -19 -65 -26 -55 -21 -238 -99 -308 -131
-35 -16 -66 -29 -69 -29 -6 0 -51 -21 -258 -120 -200 -95 -318 -154 -330 -164
-9 -7 -56 -32 -215 -113 -30 -15 -57 -30 -60 -33 -3 -4 -50 -31 -105 -62 -55
-30 -116 -64 -135 -75 -51 -29 -194 -117 -200 -123 -3 -3 -18 -12 -35 -20 -16
-8 -34 -18 -40 -23 -5 -4 -46 -30 -90 -59 -44 -28 -144 -94 -223 -147 -78 -53
-150 -100 -159 -106 -9 -5 -28 -20 -42 -32 -14 -13 -30 -23 -34 -23 -5 0 -14
-6 -22 -12 -25 -25 -55 -48 -61 -48 -3 0 -19 -10 -34 -22 -15 -13 -37 -30 -50
-38 -20 -13 -105 -78 -248 -187 -24 -18 -49 -38 -56 -45 -8 -7 -26 -22 -42
-33 -26 -19 -93 -73 -104 -85 -3 -3 -18 -16 -35 -29 -106 -81 -355 -312 -530
-491 -124 -128 -170 -179 -300 -335 -37 -44 -76 -90 -86 -103 -10 -12 -19 -27
-19 -32 0 -6 -4 -10 -8 -10 -4 0 -16 -13 -25 -30 -10 -16 -23 -35 -30 -42 -12
-13 -41 -55 -62 -90 -5 -9 -27 -45 -47 -78 -21 -34 -38 -66 -38 -71 0 -5 -4
-9 -10 -9 -5 0 -10 -4 -10 -9 0 -6 -18 -48 -40 -95 -86 -182 -138 -383 -134
-516 2 -87 13 -162 25 -176 5 -7 9 -16 8 -20 -5 -21 59 -151 101 -207 40 -53
157 -160 227 -206 43 -28 128 -76 188 -105 102 -50 323 -132 384 -142 14 -3
33 -7 41 -11 8 -3 40 -11 70 -18 30 -7 98 -23 150 -35 106 -24 124 -28 160
-35 14 -2 44 -10 66 -17 l42 -13 -31 -65 c-16 -36 -45 -108 -63 -160 -30 -89
-69 -149 -98 -151 -6 0 -20 -2 -31 -5 -21 -4 -82 -10 -205 -19 -41 -3 -91 -7
-110 -10 -19 -2 -71 -6 -115 -10 -44 -3 -105 -8 -135 -11 -30 -2 -80 -6 -110
-9 -92 -7 -260 -22 -345 -31 -28 -3 -75 -7 -105 -9 -30 -1 -82 -6 -115 -9
-213 -22 -262 -27 -310 -31 -22 -2 -40 -4 -40 -5 0 0 -27 -3 -60 -5 -68 -5
-144 -12 -225 -20 -66 -7 -151 -15 -205 -19 -22 -2 -62 -6 -90 -10 -27 -3 -79
-8 -115 -11 -36 -4 -83 -8 -105 -11 -22 -3 -69 -7 -105 -10 -36 -2 -81 -6
-100 -9 -19 -2 -66 -7 -105 -10 -38 -4 -88 -9 -110 -11 -22 -2 -65 -6 -95 -9
-30 -3 -71 -8 -90 -10 -19 -3 -66 -8 -105 -10 -38 -3 -86 -7 -105 -10 -19 -2
-64 -7 -100 -11 -36 -3 -83 -7 -105 -10 -22 -2 -69 -6 -105 -10 -83 -7 -134
-12 -190 -19 -25 -2 -72 -7 -105 -10 -33 -4 -78 -8 -100 -10 -22 -2 -69 -7
-105 -10 -36 -3 -81 -7 -100 -10 -19 -2 -60 -7 -90 -10 -30 -3 -71 -8 -90 -10
-19 -2 -64 -7 -100 -10 -36 -3 -76 -7 -89 -10 -13 -2 -58 -7 -100 -10 -42 -3
-83 -7 -91 -10 -8 -2 -49 -6 -90 -10 -42 -3 -87 -7 -100 -9 -43 -7 -143 -19
-185 -22 -22 -1 -60 -5 -85 -9 -52 -7 -94 -11 -170 -19 -30 -3 -71 -8 -91 -12
-20 -3 -56 -7 -80 -9 -96 -9 -156 -15 -189 -20 -36 -6 -89 -12 -170 -20 -84
-8 -145 -15 -180 -20 -31 -5 -76 -10 -190 -20 -19 -2 -35 -4 -35 -5 0 -1 -20
-3 -45 -4 -53 -4 -155 -15 -190 -21 -24 -4 -126 -14 -200 -20 -37 -3 -125 -12
-200 -20 -25 -3 -67 -8 -95 -10 -27 -3 -70 -7 -95 -9 -25 -3 -72 -7 -105 -11
-33 -3 -80 -7 -105 -10 -114 -11 -168 -17 -200 -20 -19 -2 -68 -7 -109 -10
-84 -7 -137 -12 -201 -20 -25 -3 -72 -7 -105 -10 -33 -3 -85 -7 -115 -10 -30
-3 -80 -8 -110 -10 -30 -3 -75 -7 -100 -10 -25 -2 -81 -7 -125 -10 -44 -4
-105 -8 -135 -11 -93 -7 -261 -16 -346 -18 -44 -2 -85 -5 -90 -7 -5 -3 -202
-5 -439 -4 -467 2 -533 8 -581 51 -25 24 -25 25 -8 52 9 15 24 34 33 43 26 25
160 103 231 133 36 16 94 42 130 59 223 102 261 117 276 116 4 0 10 3 13 8 6
9 295 129 656 273 99 40 194 78 210 85 17 7 89 36 160 65 72 28 144 58 160 65
17 7 84 34 150 60 66 26 132 53 147 61 15 8 31 15 35 16 11 1 19 4 238 93 105
42 195 78 201 79 7 1 18 6 25 12 8 6 34 17 59 24 25 7 50 17 55 20 6 4 30 15
55 24 25 10 56 23 70 29 14 6 27 11 30 12 3 1 18 7 34 14 15 6 63 25 105 42
84 34 136 56 166 69 11 5 128 54 260 109 389 161 719 302 734 315 8 6 16 10
18 8 2 -1 24 6 49 18 26 11 48 20 50 20 3 0 63 26 159 70 22 10 68 30 103 44
34 15 93 40 130 57 62 29 110 49 122 51 3 1 40 19 82 40 43 21 80 38 82 38 2
0 25 10 52 22 27 12 51 23 54 23 3 1 32 14 65 29 73 35 148 69 155 71 11 3 86
38 100 46 8 5 22 12 30 15 25 11 200 90 285 129 44 21 109 51 145 67 36 17 92
42 125 58 33 15 75 33 93 41 17 8 32 17 32 21 0 5 5 8 11 8 12 0 62 22 229
103 63 30 158 75 210 100 193 90 465 225 870 427 390 195 546 275 807 411 59
31 155 80 213 110 58 30 107 57 110 60 4 5 141 78 320 170 36 19 67 37 68 42
2 4 8 7 13 7 5 0 26 11 47 24 20 12 48 27 62 31 14 4 27 11 30 15 3 4 70 42
150 86 80 43 147 81 150 84 3 3 25 15 50 28 25 12 65 34 90 48 196 113 233
134 240 134 5 0 10 3 12 8 2 4 23 18 48 31 25 14 128 74 230 135 102 61 193
115 202 121 9 5 50 30 90 55 40 25 77 47 83 49 5 2 14 8 20 13 5 5 35 24 65
43 30 19 62 39 70 45 227 150 446 296 485 324 28 19 58 41 68 48 46 32 293
214 303 223 6 5 27 21 47 35 20 14 37 28 37 33 0 4 7 7 15 7 8 0 15 4 15 8 0
4 21 24 48 43 149 112 400 342 577 531 195 207 367 440 442 598 55 116 62 134
82 210 49 183 43 266 -23 338 -60 67 -195 94 -337 66z m5291 -998 c151 -9 244
-17 376 -32 23 -2 59 -6 80 -9 22 -2 57 -6 79 -10 90 -13 182 -27 205 -31 14
-2 39 -6 55 -9 17 -3 44 -8 60 -12 17 -3 39 -7 50 -8 11 -2 39 -8 63 -14 24
-7 57 -14 75 -16 18 -2 54 -11 82 -19 27 -9 51 -13 53 -11 3 2 13 0 24 -6 11
-6 27 -12 37 -14 74 -14 447 -138 526 -175 11 -5 49 -21 85 -36 92 -37 283
-130 360 -174 36 -21 81 -47 100 -58 69 -39 145 -87 148 -94 2 -5 8 -8 14 -8
6 0 27 -13 48 -30 21 -16 42 -30 48 -30 6 0 12 -3 14 -7 2 -5 35 -32 73 -61
146 -111 321 -280 415 -402 19 -24 41 -51 49 -60 60 -63 258 -409 243 -424 -3
-3 -1 -6 5 -6 5 0 10 -6 10 -12 1 -7 13 -44 27 -83 15 -38 27 -72 27 -75 0 -3
4 -21 9 -40 17 -64 21 -92 36 -215 15 -128 5 -323 -22 -435 -4 -14 -8 -34 -9
-45 -11 -79 -145 -387 -194 -447 -6 -7 -43 -56 -82 -109 -80 -108 -260 -290
-394 -398 -86 -70 -301 -217 -375 -257 -19 -10 -38 -22 -41 -27 -6 -8 -435
-224 -489 -246 -32 -13 -116 -50 -165 -72 -42 -18 -251 -102 -275 -110 -14 -4
-63 -22 -110 -39 -47 -17 -105 -38 -130 -46 -25 -8 -52 -18 -60 -21 -8 -4 -17
-7 -20 -8 -3 0 -43 -13 -90 -28 -155 -51 -213 -69 -224 -71 -6 -1 -27 -7 -46
-13 -73 -23 -321 -92 -355 -99 -11 -2 -72 -17 -135 -33 -63 -17 -126 -32 -140
-34 -14 -3 -45 -10 -70 -17 -25 -7 -56 -14 -70 -17 -14 -2 -74 -16 -135 -29
-60 -14 -119 -27 -130 -28 -11 -2 -29 -6 -40 -9 -11 -3 -37 -8 -59 -12 -21 -3
-41 -7 -45 -9 -3 -2 -22 -7 -41 -10 -19 -3 -44 -7 -55 -9 -11 -3 -36 -7 -55
-11 -19 -3 -46 -8 -60 -11 -14 -3 -36 -7 -50 -10 -14 -3 -36 -7 -50 -10 -14
-3 -37 -7 -52 -10 -16 -3 -40 -7 -55 -10 -16 -3 -39 -7 -53 -10 -13 -2 -42 -7
-64 -11 -22 -3 -43 -7 -46 -9 -3 -2 -30 -6 -60 -10 -30 -4 -58 -9 -61 -11 -6
-3 -31 -8 -109 -19 -14 -2 -50 -8 -80 -14 -81 -15 -175 -32 -315 -55 -16 -3
-55 -10 -85 -16 -30 -6 -68 -13 -85 -15 -28 -3 -340 -59 -395 -70 -14 -3 -51
-8 -82 -11 -81 -9 -96 4 -143 118 -21 51 -42 97 -47 103 -4 5 -8 12 -8 16 0 7
54 31 75 33 6 0 24 6 40 13 45 17 69 26 75 28 38 11 129 43 230 79 69 24 141
49 160 56 19 6 44 16 55 20 11 5 88 36 170 69 370 146 761 335 998 482 43 27
81 49 83 49 2 0 45 27 96 60 50 33 94 60 99 60 4 0 9 4 11 8 2 4 39 32 83 62
44 30 82 57 85 60 3 3 32 25 65 49 33 25 62 48 63 53 2 4 8 8 13 8 5 0 17 8
27 18 40 38 82 72 82 66 0 -3 8 3 18 14 9 11 58 56 107 100 111 98 249 234
335 331 36 40 77 86 93 102 15 17 27 33 27 37 0 4 16 25 35 45 19 20 35 40 35
43 0 4 15 25 33 48 35 44 81 113 140 212 36 60 147 285 152 308 2 12 10 35 30
86 13 32 35 106 41 139 1 7 8 36 15 65 14 53 18 255 7 317 -28 159 -124 310
-253 399 -75 51 -226 116 -320 136 -92 21 -222 43 -280 49 -38 4 -79 9 -90 11
-27 5 -341 5 -385 0 -19 -3 -64 -7 -100 -11 -69 -7 -93 -10 -150 -19 -19 -3
-51 -8 -70 -10 -19 -2 -55 -9 -80 -15 -25 -5 -58 -12 -75 -15 -97 -18 -318
-73 -470 -116 -137 -40 -164 -47 -195 -55 -8 -2 -16 -4 -17 -5 -2 -2 -6 -3
-10 -4 -19 -4 -270 -88 -288 -96 -11 -5 -87 -34 -170 -64 -179 -65 -436 -169
-565 -228 -25 -11 -85 -38 -135 -60 -49 -22 -115 -51 -145 -66 -30 -15 -57
-27 -60 -27 -3 -1 -24 -11 -46 -23 -23 -11 -44 -18 -48 -15 -3 4 -6 1 -6 -5 0
-7 -5 -12 -11 -12 -27 0 -870 -427 -1174 -595 -196 -109 -212 -117 -233 -130
-10 -5 -55 -32 -102 -59 -170 -98 -505 -300 -518 -313 -7 -7 -17 -13 -22 -13
-10 0 -190 -116 -388 -249 -62 -42 -123 -83 -136 -91 -66 -43 -394 -275 -421
-297 -5 -5 -37 -29 -70 -53 -68 -49 -354 -269 -371 -285 -6 -5 -28 -23 -50
-40 -46 -36 -214 -175 -230 -190 -6 -5 -27 -22 -46 -37 -19 -15 -48 -40 -64
-55 -17 -15 -66 -59 -109 -98 -141 -126 -344 -333 -450 -460 -22 -26 -45 -53
-51 -59 -5 -6 -36 -46 -68 -88 -31 -42 -67 -83 -79 -91 -28 -18 -71 -15 -172
11 -22 6 -51 13 -65 16 -55 11 -210 57 -286 85 -86 32 -280 124 -294 140 -3 3
-31 23 -62 43 -99 65 -189 164 -240 263 -63 123 -81 235 -64 390 3 28 8 59 10
70 30 130 89 285 153 405 65 119 196 314 279 415 14 17 39 47 56 67 44 55 63
76 131 152 89 99 372 382 446 446 35 30 80 71 101 90 21 19 57 51 80 70 24 19
48 40 54 45 28 26 264 211 343 270 48 36 94 70 100 75 44 36 365 260 372 260
5 0 11 3 13 8 11 25 607 397 848 530 25 13 68 37 95 52 140 77 182 99 355 186
104 52 193 94 198 94 6 0 12 3 14 8 5 12 210 102 683 302 11 4 58 23 105 40
47 18 94 36 105 40 93 36 269 99 295 105 8 2 16 4 18 4 1 1 4 0 5 -1 2 -2 10
2 18 8 12 10 59 25 74 24 3 0 18 6 34 14 15 8 39 17 52 20 31 7 190 54 209 63
8 3 21 7 29 9 8 1 35 9 60 18 25 8 57 17 71 20 14 2 49 12 79 21 30 9 62 18
70 20 9 2 50 13 91 24 41 11 86 22 100 25 14 3 68 17 120 30 52 14 111 28 131
31 20 3 51 10 69 15 18 5 35 9 39 8 3 0 9 1 14 2 11 4 19 6 67 15 25 5 47 9
50 10 7 2 89 16 120 22 14 2 32 6 40 8 18 5 33 8 230 39 189 30 220 35 273 41
23 3 51 7 62 9 11 2 49 7 85 11 36 4 74 9 85 11 11 2 49 7 85 10 36 4 75 11
88 15 17 7 21 6 16 -3 -4 -6 -3 -8 3 -5 6 4 26 9 44 11 142 20 276 33 434 42
55 3 101 7 102 8 5 4 634 -3 733 -8z m67 -1310 c56 -3 121 -10 145 -15 24 -6
54 -12 68 -15 33 -6 78 -21 115 -37 17 -7 33 -13 36 -13 23 -4 143 -90 188
-136 56 -58 126 -174 133 -220 1 -14 6 -27 10 -30 7 -6 21 -118 21 -175 -2
-174 -69 -409 -185 -640 -22 -44 -47 -88 -56 -97 -8 -10 -12 -18 -8 -18 5 0
-95 -154 -126 -195 -5 -5 -36 -46 -70 -90 -35 -44 -67 -85 -73 -91 -5 -6 -41
-47 -80 -90 -118 -132 -308 -317 -430 -418 -33 -28 -67 -56 -75 -63 -18 -17
-166 -130 -204 -158 -15 -11 -48 -35 -71 -52 -24 -18 -49 -33 -54 -33 -6 0
-11 -3 -11 -8 0 -4 -9 -12 -19 -17 -10 -6 -50 -31 -87 -56 -88 -58 -277 -170
-374 -222 -159 -84 -469 -236 -495 -243 -5 -1 -56 -22 -112 -47 -56 -25 -104
-43 -107 -39 -3 3 -6 0 -6 -6 0 -7 -6 -12 -12 -12 -11 0 -138 -47 -233 -85
-11 -4 -24 -9 -30 -11 -30 -8 -283 -106 -299 -115 -36 -21 -93 -18 -114 5 -15
16 -102 250 -117 311 -1 6 -5 17 -8 25 -7 19 -58 180 -63 200 -2 8 -13 49 -25
90 -21 74 -55 211 -64 260 -3 14 -8 36 -11 50 -3 14 -8 36 -10 50 -2 14 -7 41
-10 60 -11 61 -12 74 -18 120 -17 146 -18 150 -45 171 -23 18 -37 20 -123 17
-115 -4 -131 -14 -132 -80 0 -39 10 -163 14 -163 1 0 3 -9 4 -20 10 -74 40
-223 67 -335 12 -47 23 -94 25 -105 5 -25 35 -125 87 -290 22 -71 42 -134 43
-140 2 -5 17 -47 33 -92 69 -185 90 -247 87 -251 -3 -2 -46 -15 -98 -28 -279
-74 -325 -86 -342 -90 -10 -2 -53 -12 -95 -23 -79 -20 -487 -110 -531 -117
-14 -2 -36 -6 -50 -9 -14 -3 -41 -8 -60 -11 -19 -4 -44 -9 -55 -11 -11 -2 -32
-6 -46 -8 -14 -2 -63 -11 -108 -19 -45 -9 -85 -15 -89 -15 -4 1 -9 0 -12 -1
-8 -3 -35 -8 -77 -13 -21 -3 -67 -10 -103 -16 -36 -6 -91 -13 -123 -16 -32 -4
-66 -8 -75 -9 -34 -7 -98 -16 -142 -20 -25 -3 -61 -8 -80 -10 -19 -3 -64 -8
-100 -11 -36 -3 -83 -8 -105 -10 -22 -2 -74 -7 -115 -10 -41 -4 -93 -8 -116
-10 -147 -13 -696 -39 -764 -36 -8 0 -46 0 -85 0 -184 -2 -574 6 -755 17 -69
4 -146 8 -172 8 -27 1 -48 4 -48 8 0 3 -10 4 -21 1 -20 -6 -20 -4 -9 18 8 13
27 42 44 64 200 258 465 530 751 771 178 150 520 416 705 549 52 37 97 71 100
74 3 3 25 19 49 35 25 16 50 33 55 37 6 5 25 20 42 34 18 14 37 25 43 25 6 0
11 5 11 10 0 6 5 10 10 10 6 0 18 6 26 13 33 28 42 34 99 72 33 22 62 42 65
45 14 15 440 290 691 445 9 6 34 20 55 33 22 12 48 28 58 35 79 50 127 77 136
77 5 0 10 5 10 10 0 6 4 10 10 10 5 0 50 25 101 55 50 30 93 55 95 55 2 0 50
26 107 59 56 32 138 77 182 101 44 24 103 55 130 70 151 82 601 312 667 340
13 5 30 14 38 20 8 5 53 27 100 48 47 22 121 56 165 77 43 20 145 66 225 102
80 36 163 73 185 83 106 48 409 174 575 240 102 40 199 79 215 86 43 18 418
142 446 148 13 3 47 12 74 21 28 9 59 18 70 21 51 10 85 19 105 26 13 5 180
41 250 54 14 3 32 7 40 9 8 2 38 7 65 11 28 3 59 8 70 11 35 7 87 13 174 18
47 3 87 7 89 10 2 2 9 2 15 0 7 -2 58 -6 114 -9z m-2809 -3719 c13 -10 103
-189 98 -194 -1 -1 -33 -7 -72 -13 -38 -5 -82 -12 -99 -15 -29 -4 -143 -20
-215 -30 -19 -2 -50 -7 -68 -9 -28 -4 -91 -13 -237 -32 -22 -3 -51 -7 -65 -9
-41 -6 -133 -17 -165 -20 -16 -2 -43 -6 -60 -9 -16 -3 -50 -8 -75 -11 -25 -3
-58 -7 -75 -9 -16 -2 -61 -7 -100 -11 -38 -3 -81 -8 -95 -10 -131 -19 -192
-27 -240 -30 -25 -2 -46 -5 -47 -6 -2 -1 -16 -3 -33 -4 -16 -1 -31 -3 -32 -4
-2 -1 -25 -4 -53 -6 -27 -2 -70 -7 -95 -10 -52 -7 -90 -11 -180 -19 -65 -6
-122 -13 -169 -20 -44 -7 -175 -20 -193 -19 -10 0 -18 -2 -18 -6 0 -3 -21 -6
-48 -7 -43 0 -118 -7 -232 -21 -25 -3 -63 -6 -85 -8 -130 -11 -173 -16 -202
-20 -18 -3 -63 -7 -100 -11 -38 -3 -84 -7 -103 -9 -19 -3 -64 -7 -100 -10 -36
-3 -81 -7 -100 -10 -19 -2 -66 -7 -105 -11 -38 -3 -88 -8 -110 -10 -79 -8
-131 -13 -200 -19 -38 -3 -88 -8 -110 -10 -22 -3 -71 -7 -110 -10 -38 -3 -88
-8 -110 -10 -41 -5 -119 -12 -210 -20 -27 -2 -75 -6 -105 -9 -30 -3 -84 -8
-120 -11 -36 -4 -87 -8 -115 -11 -27 -3 -70 -7 -94 -9 l-43 -4 6 30 c8 41 79
189 102 214 30 32 70 54 111 61 59 10 165 11 191 2 13 -5 22 -4 22 3 0 6 5 7
13 2 13 -9 1357 -12 1357 -3 0 3 37 5 83 6 79 1 230 9 347 20 30 3 80 7 110 9
30 2 55 5 55 5 0 2 8 3 115 14 36 3 76 8 90 10 22 4 48 7 158 22 17 2 47 6 65
8 17 3 55 8 83 11 28 3 61 8 75 10 13 3 44 8 69 11 94 11 105 13 105 14 0 1
14 3 30 5 29 3 43 5 175 26 36 6 79 13 95 15 17 2 41 6 55 9 57 11 77 15 115
21 22 3 51 7 65 9 26 3 45 7 140 25 30 6 66 13 80 15 14 2 48 9 75 15 28 7 61
14 75 16 14 3 72 17 130 31 58 14 114 27 125 28 11 2 32 8 48 14 15 6 27 9 27
6 0 -2 18 2 40 10 22 8 40 12 40 9 0 -2 8 0 18 5 9 5 31 12 47 15 17 3 46 9
65 14 38 9 67 5 88 -11z"/>
<path d="M11150 7736 c-3 -2 -18 -6 -35 -9 -56 -9 -100 -36 -100 -61 -1 -22
43 -57 85 -70 39 -11 76 -10 156 7 20 5 68 40 98 71 l28 31 -36 16 c-34 15
-185 27 -196 15z"/>
<path d="M10153 7640 c-2 -3 -16 -5 -31 -6 -49 -2 -197 -14 -242 -19 -25 -2
-70 -7 -100 -10 -30 -2 -73 -7 -95 -9 -22 -3 -69 -8 -105 -11 -36 -3 -81 -8
-100 -10 -19 -3 -55 -7 -80 -9 -25 -3 -67 -7 -95 -10 -27 -4 -73 -8 -100 -11
-28 -2 -64 -6 -80 -9 -17 -2 -64 -7 -105 -10 -41 -4 -88 -9 -105 -12 -16 -3
-47 -7 -70 -9 -144 -13 -213 -23 -227 -31 -4 -3 -8 0 -8 6 0 6 -5 8 -11 4 -6
-3 -30 -8 -52 -10 -23 -2 -80 -8 -127 -14 -87 -11 -134 -16 -230 -25 -71 -7
-125 -14 -175 -21 -22 -3 -67 -7 -100 -9 -33 -2 -60 -5 -60 -6 0 0 -18 -2 -40
-4 -22 -2 -62 -6 -90 -9 -117 -15 -221 -26 -285 -31 -30 -3 -71 -7 -90 -10
-19 -2 -60 -7 -90 -10 -30 -4 -67 -8 -83 -11 -15 -2 -53 -7 -85 -9 -31 -3 -70
-7 -87 -9 -16 -3 -59 -7 -95 -11 -36 -4 -78 -9 -95 -11 -16 -3 -50 -7 -75 -10
-25 -2 -61 -6 -80 -9 -19 -2 -60 -7 -90 -10 -30 -4 -66 -8 -80 -10 -14 -2 -50
-6 -80 -10 -63 -7 -128 -16 -150 -20 -8 -2 -30 -4 -47 -4 -26 -1 -33 -5 -33
-20 0 -18 8 -19 130 -18 71 1 130 4 130 7 0 3 24 6 53 6 54 1 172 11 342 29
28 3 79 7 115 10 60 5 111 10 200 20 48 6 147 15 205 20 50 5 125 12 185 20
33 4 122 12 220 21 25 2 63 6 85 8 22 3 72 7 110 10 39 4 86 9 105 11 33 5 96
10 215 20 118 9 193 16 235 21 25 2 70 7 100 9 107 9 176 15 220 20 25 2 74 7
110 10 36 3 83 8 105 10 22 3 66 7 98 10 123 11 209 20 306 31 30 3 75 8 100
9 25 2 46 4 46 5 0 0 27 3 60 5 33 3 78 7 100 10 22 3 67 7 100 10 33 3 83 7
110 11 28 3 68 7 90 9 22 3 65 7 95 10 57 6 96 12 140 20 14 3 43 7 65 10 75
10 78 11 80 33 1 12 -1 22 -4 23 -3 0 -15 2 -26 4 -97 18 -240 26 -252 15z"/>
</g>
</svg>
